<svg width="555" height="555" viewBox="0 0 555 555" fill="none" xmlns="http://www.w3.org/2000/svg">
<path d="M287.952 470.362C375.668 470.362 446.775 466.718 446.775 462.222C446.775 457.727 375.668 454.082 287.952 454.082C200.237 454.082 129.13 457.727 129.13 462.222C129.13 466.718 200.237 470.362 287.952 470.362Z" fill="#E3F0FF"/>
<path d="M357.513 460.557C357.513 460.557 354.46 455.378 361.028 452.88C367.595 450.383 382.488 448.81 381.008 443.723C379.528 438.635 374.44 429.477 387.205 420.782C399.878 412.18 397.38 408.48 399.138 409.312C400.895 410.145 405.15 415.233 404.41 420.043C403.67 424.853 400.155 426.055 401.82 427.627C403.485 429.107 409.128 423.65 409.128 418.563C409.128 413.475 409.405 409.775 413.105 411.902C416.713 414.03 416.25 417.082 418.84 414.77C421.43 412.457 423.095 407.833 421.985 400.988C420.968 394.143 424.298 389.055 429.108 388.87C433.918 388.685 443.908 397.658 444.74 411.255C445.48 424.853 437.063 435.953 438.265 439.375C439.468 442.89 444.74 441.225 447.515 436.23C450.198 431.235 456.858 439.098 455.1 445.943C453.25 452.788 451.585 460.28 447.515 461.668C443.445 463.055 371.203 461.945 365.745 461.945C360.195 461.945 358.53 462.037 357.513 460.557Z" fill="#FF8D76"/>
<path d="M374.625 458.245C378.417 458.153 389.795 458.245 388.407 451.863C387.02 445.48 384.615 442.798 388.592 437.34C392.57 431.883 396.917 435.213 397.102 437.988C397.287 440.67 396.177 446.128 400.895 445.388C405.612 444.648 405.705 431.883 409.682 430.865C413.66 429.848 414.862 433.733 415.417 437.525C416.065 441.318 420.69 437.248 422.54 432.715C424.39 428.183 424.205 421.985 428.46 420.135C432.715 418.285 434.842 428.923 432.992 438.635C431.142 448.348 429.662 453.158 431.975 454.083C434.287 455.008 438.82 452.695 440.947 456.21C443.075 459.725 439.93 462.13 431.235 462.13C422.632 462.13 378.51 462.13 371.572 462.13C364.45 462.038 365.93 458.43 374.625 458.245Z" fill="#FEC272"/>
<path d="M122.84 311.17C120.065 316.072 112.572 313.575 109.057 308.025C105.542 302.382 100.27 305.712 101.472 316.812C102.675 327.82 107.115 335.127 115.07 340.4C123.025 345.672 131.997 347.8 129.87 351.407C127.742 355.015 124.412 363.247 136.345 367.41C148.277 371.665 165.575 369.722 174.455 359.732C183.427 349.742 183.427 327.727 179.265 315.887C175.195 304.047 166.962 296.555 164.28 291.097C161.597 285.64 156.602 289.432 157.435 294.52C158.36 299.607 160.025 302.567 156.417 302.66C152.81 302.752 150.405 290.357 139.582 288.045C128.76 285.64 127.002 292.115 120.157 288.415C113.312 284.622 110.815 284.992 110.352 290.912C109.89 296.925 114.422 303.492 118.307 304.51C124.135 305.99 124.69 307.84 122.84 311.17Z" fill="#FEC272"/>
<path d="M138.75 316.905C139.767 322.178 135.42 327.912 127.835 324.583C120.25 321.252 117.567 323.935 121.452 330.965C125.337 337.995 134.032 344.47 138.75 346.875C143.467 349.28 140.23 352.795 140.877 356.402C141.525 360.01 152.07 365.468 162.707 353.813C173.345 342.158 173.437 327.358 170.385 316.535C167.332 305.805 163.262 307.47 163.262 311.077C163.262 314.685 163.725 321.808 160.95 321.068C158.267 320.328 154.475 315.055 150.96 308.95C144.947 298.498 130.24 289.988 128.297 298.035C126.91 303.678 137.27 308.858 138.75 316.905Z" fill="#FF8D76"/>
<path d="M353.258 282.402C339.938 271.58 327.82 252.155 325.138 217.282C323.195 192.03 331.613 180.837 340.308 176.675C348.91 172.605 348.91 168.535 352.795 169.645C356.68 170.755 355.755 179.635 352.148 183.982C348.54 188.33 348.078 195.082 353.535 195.545C358.993 196.007 359.64 186.202 360.565 177.137C361.49 168.072 363.71 164.465 374.44 159.47C385.17 154.475 390.813 150.867 393.033 143.56C395.345 136.252 397.565 136.715 401.635 138.75C405.705 140.785 407.093 150.312 403.67 153.92C400.248 157.527 397.565 160.302 398.028 163.447C398.49 166.592 400.063 161.597 409.405 157.065C418.748 152.532 422.54 138.935 423.743 131.905C424.945 124.875 427.35 123.025 433.918 126.262C440.485 129.407 448.903 141.895 446.59 158.915C444.278 175.935 432.715 187.498 430.958 196.655C429.108 205.72 434.843 207.755 440.763 204.332C446.683 200.91 443.445 190.735 446.683 185.925C449.828 181.115 459.633 191.382 462.593 208.588C465.553 225.793 470.085 253.173 444.463 278.795C418.008 305.065 379.25 303.585 353.258 282.402Z" fill="#FEC272"/>
<path d="M363.155 201.65C369.63 191.105 376.29 191.475 376.567 195.268C376.752 199.153 371.387 204.61 374.07 207.293C376.752 209.975 380.452 205.258 381.562 198.413C382.672 191.568 389.24 187.775 396.085 184.538C402.93 181.393 405.89 174.548 409.22 174.363C412.55 174.178 413.752 181.393 411.532 185.74C409.22 190.088 401.08 192.308 401.08 198.413C401.08 204.518 407.092 204.888 409.682 199.8C412.272 194.713 411.625 191.938 417.082 191.475C422.54 191.013 422.077 204.055 418.47 208.865C414.862 213.675 408.665 217.468 411.532 222.185C414.4 226.903 419.672 222.185 422.54 219.04C425.407 215.895 431.142 219.318 432.067 225.423C432.992 231.435 421.152 241.795 421.892 247.068C422.632 252.34 427.35 251.045 430.032 247.345C432.715 243.738 436.23 248.363 435.305 254.468C434.38 260.573 417.915 280.83 388.5 273.06C345.765 261.868 351.592 220.613 363.155 201.65Z" fill="#FF8D76"/>
<path d="M209.42 189.07L305.25 105.542C306.175 104.71 307.563 104.802 308.395 105.727C309.228 106.652 309.135 108.132 308.21 108.965L213.953 195.175L209.42 189.07Z" fill="#E1ECFF"/>
<path d="M200.448 206.09L147.908 90.28C147.353 89.17 147.908 87.7825 149.018 87.32C150.128 86.765 151.515 87.2275 152.07 88.43L207.57 203.593L200.448 206.09Z" fill="#E1ECFF"/>
<path d="M201.003 215.247C210.556 215.247 218.3 207.503 218.3 197.95C218.3 188.397 210.556 180.653 201.003 180.653C191.449 180.653 183.705 188.397 183.705 197.95C183.705 207.503 191.449 215.247 201.003 215.247Z" fill="#10411B"/>
<path d="M200.263 192.307C204.86 192.307 208.588 189.988 208.588 187.128C208.588 184.267 204.86 181.947 200.263 181.947C195.665 181.947 191.938 184.267 191.938 187.128C191.938 189.988 195.665 192.307 200.263 192.307Z" fill="#1C6F2F"/>
<path d="M337.163 411.07C336.885 418.932 327.728 419.21 323.195 410.145C321.068 405.797 317.553 398.397 314.5 391.922C311.17 384.8 308.395 378.695 308.395 378.695L334.758 381.377C334.758 381.377 335.313 386.002 335.96 391.83C336.7 398.49 337.348 406.815 337.163 411.07Z" fill="#04671B"/>
<path d="M335.96 391.83C334.665 392.108 333.185 392.385 331.613 392.662C326.155 393.587 319.865 392.94 314.593 391.923C311.263 384.8 308.488 378.695 308.488 378.695L334.85 381.377C334.758 381.377 335.405 386.003 335.96 391.83Z" fill="#034A14"/>
<path d="M158.36 380.915C155.585 388.315 163.818 392.107 171.495 385.54C175.195 382.395 181.3 376.938 186.665 372.128C192.493 366.855 197.488 362.323 197.488 362.323L172.143 354.46C172.143 354.46 169.83 358.53 166.963 363.618C163.818 369.63 159.84 376.938 158.36 380.915Z" fill="#04671B"/>
<path d="M167.055 363.71C168.165 364.543 169.368 365.375 170.755 366.207C175.38 369.167 181.393 371.017 186.758 372.22C192.585 366.947 197.58 362.415 197.58 362.415L172.235 354.552C172.235 354.552 169.923 358.623 167.055 363.71Z" fill="#034A14"/>
<path d="M404.41 281.2C400.895 308.858 397.75 338.18 391.738 358.438C390.997 361.028 390.165 363.432 389.24 365.652C381.562 385.632 367.595 381.562 349.557 383.227C331.52 384.892 326.062 384.707 326.062 384.707L330.688 356.587L352.702 223.757L395.9 227.55C395.9 227.55 398.213 229.215 400.155 232.36C402.19 235.597 408.388 249.935 404.41 281.2Z" fill="#10411B"/>
<path d="M391.738 358.437C390.998 361.027 390.165 363.432 389.24 365.652C381.562 385.632 367.595 381.562 349.557 383.227C331.52 384.892 326.062 384.707 326.062 384.707L330.688 356.587L391.738 358.437Z" fill="#034A14"/>
<path d="M166.037 204.055C166.037 204.055 177.322 198.135 190.087 197.672C202.852 197.21 303.862 207.292 336.885 210.9C369.907 214.507 384.152 219.04 390.812 222.555C397.472 226.07 400.155 232.36 400.155 232.36L347.152 227.55L166.037 204.055Z" fill="#055016"/>
<path d="M145.873 326.618L152.625 222.462C153.365 210.437 164.095 201.465 176.028 202.852L347.708 222.277C358.438 223.48 366.115 233.1 365.098 243.737L353.813 357.42C352.055 374.903 335.868 387.205 318.57 384.338L171.773 359.455C156.048 356.773 144.855 342.528 145.873 326.618Z" fill="#1C6F2F"/>
<path d="M306.638 360.935L319.033 240.777C319.588 235.69 324.12 231.99 329.208 232.545L350.76 234.95C355.848 235.505 359.455 240.13 358.9 245.125L345.025 365.375C344.47 370.462 339.753 374.07 334.665 373.423L314.685 370.925C309.69 370.37 306.083 365.93 306.638 360.935Z" fill="#FEC272"/>
<path d="M353.442 258.723C353.442 262.608 352.055 266.123 349.835 268.898C348.262 270.748 346.412 272.32 344.192 273.338C342.157 274.355 339.845 274.818 337.347 274.818C328.467 274.818 321.252 267.603 321.252 258.723C321.252 255.023 322.547 251.6 324.582 248.918C326.062 246.975 327.912 245.403 330.132 244.293C332.26 243.183 334.757 242.627 337.347 242.627C346.135 242.627 353.442 249.843 353.442 258.723Z" fill="#F9A95A"/>
<path d="M352.61 256.04C352.61 259.555 351.408 262.792 349.28 265.382C347.893 267.14 346.135 268.527 344.1 269.452C342.157 270.377 340.123 270.84 337.81 270.84C329.67 270.84 323.01 264.272 323.01 256.04C323.01 252.617 324.12 249.565 326.062 247.067C327.45 245.31 329.115 243.83 331.15 242.905C333.185 241.887 335.405 241.332 337.718 241.332C346.043 241.24 352.61 247.9 352.61 256.04Z" fill="#28A745"/>
<path d="M349.372 265.382C347.985 267.14 346.227 268.527 344.192 269.452L326.247 247.068C327.635 245.31 329.3 243.83 331.335 242.905L349.372 265.382Z" fill="#BDFFCC"/>
<path d="M338.92 312.187C335.405 313.575 331.798 313.667 328.468 312.65C326.248 312.002 324.12 310.8 322.363 309.135C320.698 307.655 319.403 305.713 318.478 303.585C315.24 295.538 319.033 286.38 327.08 283.143C330.41 281.755 333.925 281.663 337.163 282.588C339.383 283.235 341.51 284.345 343.36 285.918C345.118 287.49 346.598 289.432 347.523 291.745C350.853 299.792 346.968 308.95 338.92 312.187Z" fill="#F9A95A"/>
<path d="M338.92 308.395C335.683 309.69 332.168 309.782 329.023 308.857C326.895 308.21 324.953 307.1 323.288 305.62C321.715 304.232 320.513 302.475 319.68 300.348C316.628 292.763 320.235 284.16 327.728 281.107C330.873 279.812 334.203 279.72 337.255 280.552C339.383 281.107 341.325 282.218 343.083 283.698C344.748 285.178 346.135 287.028 347.06 289.248C350.113 296.74 346.505 305.342 338.92 308.395Z" fill="#28A745"/>
<path d="M343.082 283.605L329.022 308.857C326.895 308.21 324.952 307.1 323.287 305.62L337.255 280.552C339.475 281.107 341.417 282.125 343.082 283.605Z" fill="#BDFFCC"/>
<path d="M339.475 329.485L320.05 326.525C318.755 326.34 317.83 325.138 318.015 323.843C318.2 322.548 319.31 321.622 320.605 321.807L340.03 324.768C341.325 324.953 342.25 326.155 342.065 327.45C341.88 328.745 340.677 329.67 339.475 329.485Z" fill="#10411B"/>
<path d="M338.18 340.215L318.755 337.255C317.46 337.07 316.535 335.868 316.72 334.573C316.905 333.278 318.015 332.353 319.31 332.538L338.735 335.498C340.03 335.683 340.955 336.885 340.77 338.18C340.677 339.568 339.475 340.4 338.18 340.215Z" fill="#10411B"/>
<path d="M336.977 351.038L317.552 348.077C316.257 347.892 315.332 346.69 315.517 345.395C315.702 344.1 316.812 343.175 318.107 343.36L337.532 346.32C338.827 346.505 339.752 347.707 339.567 349.002C339.475 350.297 338.272 351.223 336.977 351.038Z" fill="#10411B"/>
<path d="M335.775 361.768L316.35 358.807C315.055 358.622 314.13 357.42 314.315 356.125C314.5 354.83 315.61 353.905 316.905 354.09L336.33 357.05C337.625 357.235 338.55 358.437 338.365 359.732C338.272 361.027 337.07 361.953 335.775 361.768Z" fill="#10411B"/>
<path d="M311.17 244.293L310.615 250.12L300.81 353.535C300.44 357.05 298.96 360.195 296.648 362.507C293.41 365.837 288.693 367.595 283.698 366.762L173.16 349.28C161.598 347.43 153.273 337.07 154.013 325.323L159.933 232.637L160.118 229.585L160.488 224.497C160.95 217.467 167.24 212.195 174.27 213.027L298.22 227.92C306.175 229.03 311.91 236.245 311.17 244.293Z" fill="#F8FBFF"/>
<path d="M311.17 244.293L310.615 250.12L160.118 229.677L160.488 224.59C160.95 217.56 167.24 212.287 174.27 213.12L298.22 228.012C306.175 229.03 311.91 236.245 311.17 244.293Z" fill="#BDFFCC"/>
<path d="M175.195 223.665C174.917 225.515 173.16 226.903 171.217 226.625C169.275 226.348 167.795 224.683 168.072 222.832C168.35 220.982 170.107 219.595 172.05 219.873C173.992 220.15 175.38 221.815 175.195 223.665Z" fill="white"/>
<path d="M189.81 225.423C189.532 227.273 187.775 228.66 185.832 228.382C183.89 228.105 182.41 226.44 182.687 224.59C182.965 222.74 184.722 221.353 186.665 221.63C188.607 221.908 189.995 223.573 189.81 225.423Z" fill="white"/>
<path d="M204.332 227.18C204.055 229.03 202.297 230.418 200.355 230.14C198.412 229.863 196.932 228.198 197.21 226.348C197.487 224.498 199.245 223.11 201.187 223.388C203.222 223.573 204.61 225.33 204.332 227.18Z" fill="white"/>
<path d="M296.648 362.507C293.41 365.837 288.693 367.595 283.698 366.763L173.16 349.28C161.598 347.43 153.273 337.07 154.013 325.323L159.933 232.638C161.875 264.735 156.973 300.532 174.825 320.882C201.003 350.76 224.775 350.575 296.648 362.507Z" fill="#E1ECFF"/>
<path d="M207.478 267.695L202.853 266.955C201.65 266.77 200.633 267.51 200.54 268.712L199.153 281.385L193.325 280.737C192.308 280.552 191.66 279.535 192.03 278.61L196.193 268.435C196.748 267.14 195.823 265.66 194.435 265.475L190.643 264.827C189.718 264.642 188.793 265.198 188.423 266.03L181.855 282.31C181.115 284.16 182.318 286.287 184.353 286.657L198.32 289.062L195.823 311.632C195.73 312.835 196.563 313.945 197.765 314.13L202.113 314.777C203.223 314.962 204.24 314.222 204.425 313.02L209.42 270.285C209.513 269.083 208.68 267.88 207.478 267.695Z" fill="#28A745"/>
<path d="M273.43 278.702L268.713 277.87C267.51 277.685 266.4 278.517 266.308 279.627L264.828 292.762L258.723 292.115C257.705 291.93 257.058 290.82 257.428 289.895L261.683 279.35C262.238 278.055 261.313 276.483 259.833 276.205L255.948 275.557C254.93 275.372 254.005 275.928 253.635 276.76L246.79 293.595C246.05 295.537 247.345 297.757 249.38 298.127L263.81 300.532L261.22 323.935C261.128 325.138 261.96 326.34 263.255 326.525L267.788 327.173C268.99 327.358 270.008 326.525 270.193 325.415L275.373 281.107C275.558 279.997 274.633 278.887 273.43 278.702Z" fill="#28A745"/>
<path d="M230.048 270.655C220.89 269.823 215.525 275.002 213.305 290.265C210.53 309.227 215.525 316.905 224.775 319.033C237.355 321.993 239.575 311.17 242.073 295.168C244.57 279.165 239.205 271.488 230.048 270.655ZM234.58 294.798C233.378 305.99 229.955 312.373 225.793 311.355C221.353 310.245 219.688 305.065 220.983 291.838C222 281.2 224.59 277.593 228.938 277.963C233.285 278.425 235.783 283.605 234.58 294.798Z" fill="#28A745"/>
<path d="M350.76 150.775C346.32 150.683 344.378 140.045 348.54 137.363C352.703 134.68 355.663 140.138 355.755 144.115C355.848 148.093 354.738 150.96 350.76 150.775Z" fill="#FF8D76"/>
<path d="M402.098 119.972C398.028 119.88 396.27 110.26 400.155 107.855C403.948 105.45 406.538 110.352 406.63 113.96C406.723 117.567 405.705 120.065 402.098 119.972Z" fill="#FEC272"/>
<path d="M442.705 100.363C438.543 100.27 436.693 90.3725 440.67 87.875C444.648 85.3775 447.238 90.465 447.423 94.165C447.608 97.865 446.405 100.548 442.705 100.363Z" fill="#FF8D76"/>
<path d="M476.467 176.675C472.952 175.75 473.415 166.778 477.3 165.483C481.185 164.188 482.48 168.998 481.833 172.235C481.185 175.473 479.705 177.508 476.467 176.675Z" fill="#FEC272"/>
<path d="M122.008 270.47C117.66 269.822 116.828 259.185 121.36 257.057C125.893 254.93 128.02 260.572 127.743 264.457C127.373 268.435 125.985 270.932 122.008 270.47Z" fill="#FEC272"/>
<path d="M109.52 236.245C106.097 235.782 105.542 227.458 108.965 225.793C112.387 224.128 114.145 228.475 113.867 231.527C113.682 234.672 112.572 236.707 109.52 236.245Z" fill="#FF8D76"/>
<path d="M84.4525 291.19C78.9025 290.45 77.885 276.76 83.62 274.078C89.2625 271.395 92.13 278.518 91.76 283.605C91.2975 288.6 89.54 291.838 84.4525 291.19Z" fill="#FEC272"/>
<path d="M142.635 199.43L98.605 164.372L90.65 178.895L142.635 199.43Z" fill="#FEC272"/>
<path d="M144.763 189.532L102.028 147.815L118.03 137.455L144.763 189.532Z" fill="#FEC272"/>
<path d="M138.473 138.935L153.458 185.555L151.978 137.548L138.473 138.935Z" fill="#FEC272"/>
</svg>
