<svg width="71" height="74" viewBox="0 0 71 74" fill="none" xmlns="http://www.w3.org/2000/svg">
<path d="M68.9365 27.6556H32.17V65.4511H68.9365V27.6556Z" fill="white"/>
<path d="M36.5809 2.32915L36.5508 3.35775L35.8461 3.43175C35.4627 3.4632 34.5264 3.54737 33.7818 3.61675C33.0372 3.68612 31.9686 3.8406 31.4175 3.94605C30.8663 4.0515 30.2797 4.17637 30.1084 4.20782C29.8164 4.26055 29.4641 4.3549 28.5473 4.6176C28.2961 4.69067 27.8222 4.82757 27.4903 4.9321C26.6445 5.17352 25.6975 5.5204 25.5768 5.63602C25.4856 5.69228 25.3811 5.72109 25.2751 5.71927C25.1324 5.73259 24.9962 5.7874 24.8819 5.87745C24.7846 5.95618 24.6709 6.01004 24.55 6.0347C24.4391 6.0347 23.7237 6.37047 22.2034 7.11602C20.9849 7.72467 18.0846 9.6237 17.0169 10.5163C16.685 10.7994 16.2519 11.1462 16.0602 11.2822C15.1638 11.9436 12.2537 15.0192 11.0156 16.6037C10.0687 17.821 7.62182 21.7042 7.60141 22.0094C7.60141 22.0511 7.33516 22.6384 7.01743 23.3211C6.232 24.9861 5.62761 26.5854 5.74831 26.7112C5.7989 26.7639 6.17165 26.5956 6.67486 26.2811C7.13813 25.9971 7.54106 25.7668 7.581 25.7668C7.62093 25.7668 7.97416 25.6299 8.3975 25.4625C10.0181 24.8214 11.4283 24.5597 13.19 24.5698C13.9146 24.5717 14.6379 24.6314 15.3537 24.7484C17.0453 25.074 18.9996 25.8815 20.2882 26.7834C21.0337 27.2977 21.2352 27.3291 21.7082 26.9933C22.081 26.7316 22.6348 26.3847 23.2587 26.0276C23.7122 25.7659 25.0816 25.2303 25.9274 24.9889C29.2404 24.0444 32.9386 24.6115 36.0449 26.5318C36.2292 26.6582 36.4069 26.7947 36.5774 26.9406C36.9803 27.2977 37.4134 27.3189 37.8359 26.9933C38.7624 26.3116 40.2632 25.5762 41.8341 25.0508C42.6195 24.7881 44.0697 24.5782 45.2066 24.568C47.7945 24.5467 50.1206 25.2081 52.2861 26.5937L53.3236 27.2653L53.7461 27.0664C54.0152 26.9404 54.2745 26.7929 54.5218 26.6252C55.5592 25.8907 57.6839 25.0527 59.1944 24.7567C60.6038 24.4949 62.3362 24.4524 63.3533 24.6522C65.6093 25.1147 66.6157 25.5022 68.751 26.7797C68.791 26.8009 68.8513 26.7593 68.8815 26.6751C68.9321 26.5179 68.499 25.3209 67.8449 23.8724C67.6434 23.4423 67.371 22.8234 67.2299 22.508C67.1029 22.2207 66.9619 21.9404 66.8074 21.6681C66.7187 21.522 66.4853 21.1224 66.3033 20.7764C66.0113 20.2214 65.4478 19.3177 64.5922 18.0162C63.1518 15.8221 60.4627 12.8834 58.1064 10.952C57.4523 10.4062 55.6498 9.06315 55.2468 8.81155C55.1581 8.74865 54.8031 8.53404 54.4712 8.3176C53.7461 7.86712 51.6116 6.7229 50.6949 6.31312C50.3328 6.1457 49.9094 5.94312 49.7585 5.86172C49.6141 5.78345 49.4571 5.73359 49.2953 5.71464C49.2008 5.71325 49.1086 5.68442 49.029 5.6314C48.9083 5.51577 48.2436 5.27435 47.2664 4.9839C46.8538 4.8581 46.3301 4.68975 46.1127 4.6065C45.9147 4.53072 45.7084 4.4813 45.4985 4.45942C45.3942 4.46223 45.2918 4.42979 45.2066 4.36692C45.1462 4.3142 44.9048 4.2513 44.6528 4.21985C44.4007 4.1884 43.7537 4.07 43.1973 3.95622C42.2911 3.77122 41.566 3.67872 38.766 3.43175L37.9601 3.35775L37.9299 2.32915L37.8998 1.31165H36.6111L36.5809 2.32915ZM41.1329 12.4579L41.3104 12.6993L41.5722 12.4477L41.8438 12.185L42.1101 12.4681C42.3719 12.7456 42.3719 12.752 42.1908 12.962C42.0195 13.147 41.9894 13.1609 41.7781 13.0138C41.4755 12.8149 41.345 12.8149 41.1134 13.0351C40.9359 13.2034 40.9119 13.1923 40.6599 12.9306C40.4078 12.6688 40.3981 12.6466 40.58 12.4366C40.8108 12.1637 40.9137 12.1748 41.1329 12.4579ZM24.8189 12.5948C25.0106 12.8149 25.0408 12.9093 24.96 13.0453C24.7887 13.3181 24.5269 13.3181 24.2553 13.0564L24.0131 12.8149L24.2349 12.5735C24.5065 12.2692 24.5269 12.2692 24.8189 12.5948ZM27.4814 12.9722C27.5116 13.1507 27.5418 14.0221 27.5418 14.9036C27.5418 16.6768 27.5719 16.7823 28.163 16.7194C28.4452 16.6981 28.5056 16.6352 28.5455 16.3836C28.6059 16.0367 28.8482 15.8795 28.8482 16.194C28.8482 16.4779 29.1898 16.761 29.4694 16.7194C29.6309 16.6981 29.7312 16.5825 29.8022 16.341C29.9229 15.9109 30.0134 15.9109 30.1945 16.3725C30.4164 16.9275 30.9702 16.8664 31.0705 16.28C31.1308 15.9544 31.3021 15.9868 31.4636 16.354C31.5941 16.6472 31.6748 16.6898 32.0476 16.724C32.6014 16.7656 32.7727 16.6185 32.7727 16.1153C32.7727 15.1496 33.78 14.6982 34.3835 15.38C35.0287 16.1042 35.1822 17.4057 34.6861 17.9515C34.3311 18.3511 33.961 18.2983 33.4268 17.784L32.9741 17.3539L32.7123 17.6786C32.4203 18.0486 31.8861 18.13 31.6651 17.8469C31.4938 17.637 31.3624 17.6471 31.1006 17.9098L30.8708 18.13L30.4687 17.8886C30.0853 17.6684 30.0454 17.6684 29.8741 17.8257C29.6327 18.0569 29.441 18.0458 29.0683 17.8257C28.7763 17.6471 28.7567 17.6471 28.565 17.8257C28.4443 17.9413 28.21 18.0042 27.8701 18.0042C27.4264 18.0042 27.3163 17.9626 27.1051 17.6897C26.7501 17.2586 26.6516 16.6296 26.6214 14.7611L26.601 13.1341L26.9436 12.8926C27.3767 12.58 27.3971 12.58 27.4779 12.9722H27.4814ZM48.0545 13.0878L48.2862 13.308L48.5382 13.0665L48.8045 12.8149L49.0761 13.098L49.3423 13.382L49.1408 13.591C48.9394 13.801 48.9296 13.8121 48.6172 13.6225C48.3252 13.4449 48.3048 13.4449 48.0936 13.6437C47.8824 13.8426 47.8824 13.8435 47.6206 13.5596C47.3587 13.2756 47.3587 13.2765 47.5398 13.0665C47.759 12.8038 47.7688 12.8038 48.051 13.0878H48.0545ZM25.252 14.2108C25.4523 14.4464 25.6123 14.7161 25.725 15.0081C25.8963 15.5631 25.796 16.5307 25.5041 17.0764C25.1712 17.7054 24.7381 17.9265 23.7619 18.0014L22.956 18.0541L22.8957 18.5259C22.8109 19.1421 22.566 19.7223 22.1875 20.2038C21.8751 20.6025 21.8325 20.6238 21.3 20.6238C20.3938 20.6238 19.5782 20.3084 20.0513 20.1409C21.2192 19.7312 22.5993 18.7026 22.5993 18.2512C22.5993 18.0662 22.2168 17.3696 22.1156 17.3696C22.0021 17.3117 21.897 17.2376 21.8032 17.1495L21.552 16.9395L21.7934 16.4668C21.9345 16.2152 22.0756 16.0043 22.1253 16.0043C22.175 16.0043 22.357 16.1727 22.5389 16.3743C22.8708 16.7443 22.8806 16.7443 23.7468 16.7443C24.3308 16.7443 24.7231 16.6925 24.9148 16.5871C25.3585 16.3457 25.2777 16.2513 24.6938 16.2939C23.9687 16.3457 23.5054 16.0626 23.5054 15.5696C23.5054 14.6242 23.9989 13.8056 24.5624 13.8056C24.8189 13.801 24.9804 13.8963 25.252 14.2108ZM41.7063 13.9379C41.9787 14.0951 42.2609 14.4836 42.4518 14.9554C42.6435 15.4484 42.6435 17.39 42.4518 17.8941C42.0293 18.9958 41.4143 19.3843 40.0147 19.4472C38.8068 19.4999 38.2725 19.3001 37.8501 18.6387C37.6078 18.2502 37.5838 18.1457 37.6282 17.4529C37.6788 16.7184 37.9299 15.9414 38.1012 16.0469C38.1421 16.0783 38.1616 16.3512 38.1314 16.6555C38.1012 17.118 38.1314 17.2744 38.3329 17.5805C38.6657 18.0948 39.1387 18.2419 40.3368 18.179C41.4143 18.1374 41.9885 17.8849 42.0994 17.4233C42.1882 17.0533 42.079 16.9506 41.6361 16.9506C41.1427 16.9506 40.4575 16.6676 40.3271 16.416C40.1966 16.1644 40.2064 15.8804 40.3777 15.306C40.5889 14.6446 40.8108 14.2145 41.0726 13.9943C41.3344 13.7742 41.4143 13.7695 41.7063 13.9379ZM52.7938 15.071C53.4887 15.3023 54.2741 15.5224 54.5457 15.5539C54.8173 15.5853 55.0702 15.6695 55.0898 15.7389C55.1093 15.8082 55.0392 16.0432 54.9291 16.2532C54.7516 16.5677 54.6469 16.6306 54.3753 16.6306C54.1632 16.6306 53.5491 16.8822 52.7539 17.2781L51.4643 17.945L50.276 17.9875C49.211 18.019 49.0583 17.9977 48.7255 17.8025C48.3705 17.5824 48.3527 17.5824 48.1619 17.7609C48.0208 17.8978 47.7484 17.9607 47.1946 17.9811C46.3292 18.0338 46.1677 18.118 46.1677 18.5166C46.1677 18.8737 45.7444 19.8116 45.3423 20.3324L45.0202 20.7524L44.2649 20.6895C43.5594 20.6155 43.247 20.5045 43.247 20.3111C43.247 20.2695 43.6304 20.0494 44.0936 19.8079C44.9811 19.3454 45.7648 18.6535 45.7648 18.3279C45.7648 18.1596 45.6645 18.118 45.1107 18.0504C44.627 17.9977 44.375 17.9135 44.154 17.7147C43.8114 17.4205 43.7812 17.1476 43.9925 16.4132C44.2747 15.4577 44.6474 14.9545 45.0805 14.9545C45.392 14.9545 45.9565 15.602 46.1455 16.157L46.323 16.6824L46.8964 16.7138C47.5105 16.7453 47.5309 16.7342 47.3596 16.4298C47.1688 16.1255 47.3499 15.6741 47.8336 15.1922C48.4273 14.5937 48.8205 14.5724 49.2731 15.108C49.6281 15.528 49.6858 16.021 49.424 16.403C49.2837 16.613 49.2837 16.6444 49.4346 16.6972C49.7568 16.8341 51.932 16.6657 52.3447 16.477C52.5666 16.3845 52.6997 16.267 52.6465 16.2143C52.5258 16.0885 51.2265 15.5844 51.025 15.5844C50.9363 15.5844 50.7534 15.6898 50.623 15.8156C50.4517 15.9729 50.3567 16.0154 50.2804 15.9313C50.039 15.6787 50.8741 14.6363 51.3179 14.6363C51.4448 14.6409 52.0962 14.8296 52.7938 15.071Z" fill="#084981"/>
<path d="M33.52 15.7324C33.3381 16.2365 33.9522 17.3808 34.3188 17.2337C34.7314 17.0764 34.2886 15.6797 33.8049 15.6066C33.6709 15.5853 33.5475 15.6381 33.52 15.7324ZM34.0232 16.2782C34.112 16.5094 33.993 16.6139 33.8821 16.4252C33.7712 16.2365 33.7614 16.1107 33.8723 16.1107C33.922 16.1107 33.9913 16.1875 34.0232 16.28V16.2782Z" fill="#084981"/>
<path d="M24.013 14.9036C23.8222 15.145 23.9935 15.2736 24.5269 15.2736C25.0603 15.2736 25.141 15.1682 24.7985 14.9166C24.5171 14.7075 24.1746 14.7075 24.013 14.9036Z" fill="#084981"/>
<path d="M40.8712 15.1765C40.6937 15.3864 40.6937 15.3966 40.881 15.5465C41.0922 15.7037 41.7977 15.7463 41.8776 15.5992C41.9486 15.4937 41.5554 15.1052 41.2741 15.022C41.133 14.9767 41.0025 15.0192 40.8712 15.1765Z" fill="#084981"/>
<path d="M47.9002 15.8064C47.6179 15.9211 47.6481 16.0839 48.0005 16.3521C48.2019 16.5094 48.3555 16.5371 48.635 16.4881C49.0983 16.3956 49.1986 16.1422 48.8764 15.8896C48.6146 15.6797 48.2623 15.6482 47.9002 15.8064Z" fill="#084981"/>
<path d="M44.5267 16.1875C44.3954 16.3133 44.4557 16.6176 44.6155 16.6805C44.8267 16.7647 45.4142 16.7647 45.4914 16.6703C45.6219 16.5445 45.1284 16.1153 44.8569 16.1153C44.7078 16.1107 44.5569 16.1421 44.5267 16.1875Z" fill="#084981"/>
<path d="M32.17 32.2214V36.7872L36.5809 36.7659L40.9811 36.7345L41.0122 32.19L41.0317 27.6575H32.17V32.2214ZM39.7227 32.1687V35.4275L36.5809 35.4062L33.4285 35.3747L33.3983 32.1419L33.3788 28.9201H39.7227V32.1687Z" fill="black"/>
<path d="M34.688 32.1687V34.163L36.581 34.1418L38.4643 34.1103L38.4945 32.1373L38.5149 30.1744H34.688V32.1687Z" fill="black"/>
<path d="M44.8588 28.9155V30.1855L45.48 30.1541L46.1013 30.1226L46.0808 28.9201L46.0711 27.713L45.4569 27.6815L44.8525 27.6501L44.8588 28.9155Z" fill="black"/>
<path d="M47.3766 28.2856V28.9257L48.0103 28.8942L48.6315 28.8628L48.6617 28.2541L48.6919 27.6556H47.3766V28.2856Z" fill="black"/>
<path d="M52.4814 27.7287C52.4414 27.7611 52.4113 28.0441 52.4113 28.3586V28.9136H51.2131L51.183 29.5112L51.1528 30.1207L50.5315 30.1522L49.897 30.1836V30.7923C49.897 31.4638 49.8366 31.5323 49.2624 31.5323C48.7894 31.5323 48.7086 31.4278 48.6687 30.7978L48.6385 30.2206L48.0172 30.1892L47.3836 30.1577V32.782L48.0172 32.8134L48.6385 32.8449L48.6483 33.4424L48.6589 34.0409L47.3898 34.0723L46.1207 34.1038L46.0905 34.7513L46.0603 35.3988L46.6949 35.4302L47.3294 35.4617L47.3596 36.0602L47.3898 36.6688H46.1775L46.1499 36.075L46.1198 35.4765L45.4985 35.445L44.864 35.4136V32.8088L45.4985 32.7773L46.1198 32.7459L46.1499 32.2316C46.1704 31.9485 46.1402 31.6766 46.0896 31.6229C45.9893 31.5184 42.4943 31.4444 42.3337 31.5388C42.2733 31.5813 42.2449 31.8644 42.2636 32.1789L42.2938 32.7459L42.8973 32.7986L43.5016 32.8513L43.5318 33.4489L43.562 34.0474L42.9274 34.0788L42.2938 34.1103V36.7345L42.9274 36.7659L43.562 36.7974L43.5318 37.3959L43.5016 37.9943L41.6184 38.0258L39.7253 38.0461V39.306H38.5174V38.0461H32.17V39.306H32.9049C33.3256 39.3066 33.746 39.331 34.1643 39.3791L34.6968 39.442L34.6666 40.0303L34.6364 40.6176L34.0152 40.6491L33.3806 40.6805V41.9302H32.17V43.2835L32.754 43.3149L33.3282 43.3464L33.3584 43.9449L33.3886 44.5535H35.886L35.9162 45.201L35.9464 45.8624L36.5809 45.8938L37.2155 45.9253L37.1862 46.5275L37.156 47.1259L35.9268 47.1574L34.6985 47.1888L34.6684 47.8363L34.6382 48.4838H33.4285L33.3983 47.8225L33.3682 47.175H32.17V55.0467H33.3788L33.3983 52.4567L33.4285 49.8538L34.6577 49.8223L35.886 49.7909L35.9162 50.4522L35.9464 51.1136L37.235 51.1451L38.5148 51.1765V53.6851H37.2048V52.4253H34.6879V55.0495H42.2316L42.2627 56.3297L42.2929 57.6247L42.8964 57.6774L43.5008 57.7292L43.5513 58.3591L43.6019 58.9891L44.2054 58.9789L44.8098 58.9576L44.8604 58.349L44.911 57.7292L45.495 57.6978L46.0692 57.6663V60.31L44.84 60.2785L43.5975 60.2471L43.5673 59.5857L43.5371 58.9243L42.9159 58.9558L42.2946 58.9872V65.3891L42.9159 65.4215L43.5371 65.453L43.5673 64.8434L43.5975 64.2347L44.2187 64.2033L44.84 64.1718L44.8702 62.8916L44.9003 61.6114L46.7934 61.58L48.6767 61.5587V60.297H49.8845V62.9212H51.1936V64.1811H48.6855V62.9212H46.0674V64.1811H48.6855V65.44L50.5786 65.4197L52.4618 65.3873L52.492 64.1496L52.5222 62.9212H56.2382V64.1811H58.7453L58.7755 64.7786L58.8057 65.3873L59.4403 65.4197L60.0615 65.4511V64.1811H61.3715V65.44L63.2645 65.4197L65.1478 65.3873L65.1779 63.467L65.1975 61.5467L65.7814 61.5781L66.3557 61.6096L66.3858 62.8898L66.416 64.1848H67.7055L67.7357 62.8898L67.7659 61.6096L68.3499 61.5781L68.9241 61.5467V57.6737H66.4089V58.3027C66.4089 58.8808 66.4293 58.9326 66.6503 58.9955C66.7623 59.0283 66.8808 59.0283 66.9929 58.9955C67.1286 58.9628 67.2698 58.9628 67.4056 58.9955C67.7277 59.0695 67.7277 59.0695 67.6976 59.6569L67.6674 60.2452L66.4391 60.2767L65.1966 60.3081V61.5569H63.8911V59.0381H64.3845C65.1602 59.0381 65.2001 58.9955 65.2001 58.2925V57.6839L64.5789 57.6524L63.9443 57.621L63.9141 57.0225L63.884 56.424L64.5185 56.3926L65.1531 56.3611L65.1833 54.3881L65.2028 52.4253H66.4116V51.1765L67.0461 51.1451L67.6674 51.1136L67.6976 50.4661L67.7277 49.8186L67.0941 49.7872L66.4595 49.7557L66.4293 49.1572L66.3991 48.5588L65.17 48.5273L63.9417 48.4959V47.2305L64.5762 47.199L65.1975 47.1676V45.9179H67.7055L67.7357 44.6229L67.7659 43.3418L68.3197 43.29L68.8735 43.2372V41.982L67.631 41.9506L66.3885 41.9191L66.4187 41.3206L66.4488 40.7231L67.0834 40.6916L67.7047 40.6602V38.0461H66.4089V39.306H65.2001V38.0461H63.8911V39.306H62.5687L62.5989 39.9535L62.629 40.6149L63.2636 40.6463L63.8849 40.6778V43.302L64.5194 43.2705L65.1407 43.2391L65.1904 42.6092L65.241 41.9792L65.8249 41.9478L66.3991 41.9163V44.5507H62.582V45.9151H61.3741V48.5393H62.582V49.802H61.3741V51.1663H62.582V52.4253H63.8911V53.6851H62.6929L62.6628 53.0765L62.6326 52.478L61.3741 52.4253L60.1148 52.3735L60.0837 51.8C60.0633 51.4855 59.9949 51.1913 59.9328 51.1525C59.8707 51.1136 59.6009 51.0683 59.3391 51.0683H58.8554L58.835 49.148L58.8048 47.2379L58.1836 47.2064L57.5623 47.175L57.5321 48.4653L57.502 49.7603L56.8674 49.7918L56.2328 49.8232L56.263 50.4707L56.2932 51.1182L57.5357 51.1497L58.764 51.1811V53.6897H53.7203V52.4253H55.0294V51.1765L54.5856 51.1136C53.8206 50.9878 53.77 51.0294 53.7398 51.775L53.7097 52.4225H52.5115V51.1663H53.7203V49.802H55.0294V48.5421H53.7203V49.7909L53.0991 49.8223L52.4645 49.8538L52.4343 50.4421L52.4042 51.0294L51.1856 51.0923C50.5102 51.1349 49.6769 51.1663 49.3219 51.1663H48.6873V49.802H51.2043V48.5523L51.8388 48.5208L52.4601 48.4894L52.4902 47.828L52.5204 47.1805H55.0276V45.9318L54.4064 45.9003L53.7718 45.8689V44.6062L54.4064 44.5748L55.0276 44.5433V43.2946H48.6855V41.9302H49.8934V40.6704H51.2025V41.9302H52.5115V40.6704H51.2025V38.0461H48.6855V39.306H47.3765V36.7974L48.0101 36.7659L48.6314 36.7345L48.6616 35.4395L48.6917 34.1593H51.1989V35.4275H49.8837L49.9138 36.075L49.944 36.7363H51.1528L51.183 36.075L51.2131 35.4275H52.4113V38.0508H53.7203V38.6594C53.7203 38.9961 53.7407 39.3004 53.7603 39.3208C53.7798 39.3411 54.0833 39.3421 54.4152 39.3319L55.0294 39.2893V38.0461H53.7106L53.7407 36.7558L53.7709 35.4746L54.4055 35.4432L55.0267 35.4117V36.7872H56.2355V35.4275H55.0294V34.163H57.5366L57.5676 33.5016L57.5978 32.8541L58.2315 32.8227L58.8527 32.7912V31.5425H58.5102C58.291 31.5376 58.0724 31.5166 57.8561 31.4796C57.5534 31.4167 57.5437 31.4065 57.5437 30.7978V30.1781H56.2382V30.7978C56.2382 31.2603 56.1973 31.4278 56.0766 31.4796C55.8654 31.5637 54.2537 31.5637 53.2872 31.4796L52.5115 31.4065V28.9155H53.7203V30.1744H55.0294V28.9155H57.5472V27.6575H55.0498C53.6697 27.6575 52.5115 27.6871 52.4814 27.7287ZM52.4113 33.4285V34.0585H51.2025V33.5035C51.2025 33.189 51.2327 32.905 51.2735 32.8735C51.3143 32.8421 51.5752 32.8005 51.8779 32.8005H52.4104L52.4113 33.4285ZM44.8586 36.0518V36.6818H43.5496V36.1268C43.5496 35.8113 43.5797 35.5283 43.6197 35.4968C43.6596 35.4654 43.9525 35.4238 44.2747 35.4238H44.8586V36.0518ZM46.0674 38.6761V39.306H44.8586V41.9302H46.0372L46.1073 40.7018C46.1473 40.0192 46.1881 39.4632 46.1961 39.4531C46.3862 39.4209 46.5786 39.4048 46.7712 39.405L47.325 39.3735L47.3552 40.021L47.3853 40.6685H48.6846V39.306H49.1284C49.8437 39.306 49.8934 39.3476 49.8934 40.0515V40.6704H48.6855V41.9302H47.3765V44.5433L48.0101 44.5748L48.6314 44.6062L48.6616 45.2537L48.6917 45.9151H49.8801L49.9103 45.2537L49.9405 44.6062L51.183 44.5748L52.4113 44.5433V45.9179H51.2025V47.175H49.9041L49.8739 47.8225L49.8437 48.4838H47.4262V47.2305L48.0607 47.199L48.682 47.1676V45.9179H46.0772L46.047 47.199L46.0168 48.494L45.4426 48.5255L44.8586 48.5569V49.7955L46.1011 49.8269L47.3294 49.8584L47.3596 50.5059L47.3898 51.1673H48.6891V52.4262H49.897V53.686H48.6855V52.4253H46.1677V51.8592C46.1677 51.1978 46.0372 51.0405 45.4932 51.0609C44.8489 51.0923 44.8586 51.1136 44.8586 50.431V49.802H43.5593L43.5292 51.0822L43.499 52.3772L42.9248 52.4086L42.3408 52.4401V51.1663H38.5174V49.8121L37.8962 49.7807L37.2616 49.7492L37.2315 49.1508L37.2013 48.5523L37.8358 48.5208L38.4704 48.4894L38.5006 47.1944L38.5308 45.9133H37.2048V44.5535H35.9969V43.2835L36.5809 43.3149L37.1551 43.3464L37.1853 43.9449L37.2155 44.5535H38.5174V43.2946H39.7156L39.7457 42.6332L39.7759 41.9857H40.9838V43.2456L40.3626 43.277L39.728 43.3085V44.5572L41.621 44.5785L43.5043 44.6099L43.5345 45.2574L43.5647 45.9188H44.864V44.5646L45.4985 44.5332L46.1198 44.5017V43.3464L44.8613 43.2946L43.6028 43.2419L43.5726 42.5805L43.5425 41.933H42.3408V40.6805L41.0619 40.6491L39.7733 40.6176L39.7431 39.9563L39.7129 39.2958L42.2609 39.3162L44.808 39.3374L44.8382 38.8231C44.879 38.0572 44.8888 38.0461 45.5127 38.0461H46.0674V38.6761ZM38.5148 40.6186V41.9302H35.9969V39.4216L36.5294 39.3791C36.8117 39.3587 37.3859 39.3374 37.7888 39.3273L38.5139 39.306L38.5148 40.6186ZM65.2001 39.8212C65.2001 40.6297 65.1602 40.6713 64.4901 40.6713H63.8955V39.306H65.2046L65.2001 39.8212ZM65.1424 49.9694C65.1726 50.0619 65.2028 50.652 65.2028 51.282V52.4253H63.8911V51.1867C63.8911 50.505 63.9212 49.9065 63.9621 49.875C64.0029 49.8436 64.2638 49.802 64.5558 49.802C64.9383 49.802 65.0901 49.8436 65.1424 49.9694ZM41.0122 53.0765L41.0424 53.6851H39.7227V53.1301C39.7227 52.8147 39.7528 52.5316 39.7937 52.4891C39.8345 52.4465 40.1158 52.4262 40.4273 52.4475L40.9811 52.4789L41.0122 53.0765ZM52.4317 53.0765L52.4618 53.7378L53.0964 53.7693L53.7177 53.8007V56.3093H51.2025V57.6737H52.4015L52.4317 58.3212L52.4618 58.9826L53.0964 59.014L53.7177 59.0455V60.2942H55.0267V58.9326H53.7106L53.7407 58.324L53.7709 57.7255L54.4055 57.6941L55.0267 57.6626V56.4139H56.2355V57.6737H55.0294V58.9326H55.4625C55.6941 58.9326 56.2612 58.9641 56.721 59.0066L57.5472 59.0695L57.5268 60.9695L57.4966 62.8685L56.8754 62.9L56.2408 62.9314V60.297H55.0391L55.009 60.8955L54.9788 61.5041L54.3575 61.5356L53.723 61.567V60.297H52.4113V61.5569H51.2131L51.183 60.2619L51.1528 58.9817L49.9236 58.9502L48.6855 58.9225V60.31L48.0643 60.2785L47.4297 60.2471L47.3995 59.6486L47.3694 59.0603L48.0341 58.9872L48.6891 58.9141V57.6737H46.1677V56.4139L48.0101 56.3926L49.8437 56.3611L49.8934 55.7321L49.944 55.1022L50.5786 55.0708L51.1998 55.0393V53.8007C51.1998 53.1181 51.23 52.5307 51.2708 52.4993C51.3116 52.4678 51.5726 52.4253 51.8646 52.4253H52.3971L52.4317 53.0765ZM44.8586 54.4196V55.0495H46.0674V56.3093H43.5496V53.7896H44.8586V54.4196ZM48.6855 54.2836C48.6855 54.9968 48.6145 55.0708 47.9702 55.0236L47.4262 54.9921L47.3924 54.39L47.3623 53.7915H48.682L48.6855 54.2836ZM57.5268 55.6998L57.557 56.3093H56.2382V55.7543C56.2382 55.4398 56.2683 55.1559 56.3083 55.1142C56.3482 55.0726 56.6304 55.0513 56.9428 55.0726L57.4966 55.1041L57.5268 55.6998ZM62.5856 56.9948V58.9373H58.8581V55.0523H62.5856V56.9948ZM62.5856 60.9306V61.5606H61.3741V62.9249H62.582V64.1848H61.3741V62.9212H60.0642V64.1811H58.8563V62.9212H60.0642V61.5569H58.8563V60.297H62.5838L62.5856 60.9306Z" fill="black"/>
<path d="M38.5175 45.2325V45.9142H39.7253V47.175H41.0344V45.9262L40.4132 45.8948L39.7786 45.8633L39.7484 45.2019L39.7182 44.5544H38.5175V45.2325Z" fill="black"/>
<path d="M42.2805 47.3248C42.2504 47.3979 42.2406 47.6948 42.261 47.9723L42.2912 48.4866L42.9249 48.5181L43.5461 48.5495V47.175H42.9417C42.5228 47.175 42.3214 47.2194 42.2805 47.3248Z" fill="black"/>
<path d="M39.7228 49.1721V49.802H41.0318V48.5422H39.7228V49.1721Z" fill="black"/>
<path d="M60.1352 56.3723C60.0953 56.4139 60.0642 56.7284 60.0642 57.0651V57.6738H61.3839L61.3537 57.0124L61.3236 56.3649L60.7698 56.3334C60.4574 56.3094 60.1725 56.3325 60.1352 56.3723Z" fill="black"/>
<path d="M60.0837 32.19L60.1139 36.7345H68.8753V27.7083L64.4644 27.6769L60.0642 27.6575L60.0837 32.19ZM67.6967 32.1372L67.6665 35.3701L64.5248 35.4016L61.3733 35.4228V28.9155H67.7162L67.6967 32.1372Z" fill="black"/>
<path d="M62.6229 30.3113C62.6024 30.3844 62.5927 31.2659 62.6024 32.2742L62.6326 34.1103L64.5257 34.1418L66.4089 34.163V30.1744H64.5452C63.1163 30.1744 62.6628 30.2059 62.6229 30.3113Z" fill="black"/>
<path d="M21.0426 29.0728C19.5826 29.8498 18.8975 31.4241 19.3208 33.0614C19.4983 33.7958 19.7033 34.1529 20.2083 34.6459C21.0745 35.5172 22.2496 35.8216 23.3501 35.4784C23.9713 35.2795 24.3672 35.027 24.8908 34.4609C25.5058 33.7995 25.7268 33.1798 25.7268 32.141C25.7268 31.1022 25.5156 30.5565 24.8393 29.8285C24.1036 29.0413 23.7317 28.8841 22.5531 28.8415C21.6363 28.8101 21.4961 28.8313 21.0426 29.0728Z" fill="#084981"/>
<path d="M42.2805 29.0626C42.2504 29.1357 42.2406 29.4086 42.261 29.6602L42.2912 30.1227L42.9249 30.1541L43.5461 30.1856V28.9155H42.9417C42.5228 28.9155 42.3214 28.9572 42.2805 29.0626Z" fill="black"/>
<path d="M57.5472 36.1046V36.7974L58.1818 36.766L58.8031 36.7345L58.8332 36.0732L58.8634 35.4257H57.5472V36.1046Z" fill="black"/>
<path d="M20.9618 36.075C20.5181 36.2008 18.6659 37.9009 17.7198 39.0563C17.3967 39.4549 16.9139 40.0109 16.6619 40.305C16.1587 40.86 14.6686 42.8765 14.3357 43.4324C14.2134 43.6718 14.1477 43.9382 14.144 44.2094C14.1426 44.4586 14.1055 44.7061 14.034 44.9439C13.9562 45.1585 13.893 45.3786 13.845 45.6025C13.805 45.8023 13.6675 46.348 13.5432 46.8096C13.419 47.2712 13.2814 47.8382 13.2308 48.0685C13.1802 48.2989 13.0595 48.7928 12.9592 49.1711C12.7578 49.9269 12.7773 49.9111 11.912 49.7058C11.6395 49.6429 11.2171 49.5485 10.965 49.4856C10.2497 49.3284 10.2098 49.2553 10.4325 48.5939C10.7547 47.6282 10.6437 47.3554 9.90002 47.3443C9.47757 47.3341 9.47757 47.3341 9.33646 47.8586C9.07021 48.8243 9.03382 48.8872 8.73207 48.8243C8.58119 48.7928 8.11792 48.667 7.70523 48.5412C6.52663 48.1953 5.92225 48.1712 5.44921 48.457C4.97617 48.7429 4.74897 49.1508 4.43746 50.431C4.30699 50.9767 4.09488 51.8065 3.97418 52.268C3.85348 52.7296 3.63871 53.5279 3.51002 54.0524C3.38133 54.5768 3.16833 55.3538 3.0574 55.784C2.94646 56.2141 2.81511 56.7395 2.77517 56.9384C2.69441 57.3084 2.62429 57.5794 2.32166 58.5654C1.9995 59.6042 2.17078 60.4867 2.77517 60.9482C2.96687 61.0953 3.40973 61.2942 3.77183 61.3996C4.13393 61.5051 4.62827 61.6411 4.88032 61.7141C5.13237 61.7872 5.89739 62.0083 6.59142 62.1868C8.67616 62.7418 8.60604 62.7011 8.81017 63.2672C9.04181 63.8971 9.15274 64.0442 9.62578 64.2958C10.1388 64.5687 10.5719 64.5483 11.076 64.2329C11.2626 64.1158 11.4248 63.9607 11.5527 63.7768C11.6807 63.593 11.7718 63.3842 11.8206 63.1629C11.8695 62.9416 11.8751 62.7122 11.8371 62.4886C11.7992 62.265 11.7184 62.0516 11.5996 61.8612C11.4221 61.5883 11.3875 61.4311 11.4381 61.1897C11.7931 59.7097 12.1631 58.1566 12.2945 57.6747C12.3832 57.3592 12.5758 56.6035 12.7382 55.9949C12.9007 55.3862 13.0702 54.7461 13.1208 54.5778C13.2219 54.2531 13.4536 53.329 13.7047 52.2653C13.7855 51.9193 13.9266 51.3939 14.0074 51.1109C14.0881 50.8278 14.239 50.2081 14.3491 49.7465C14.641 48.5606 14.9437 47.4266 15.1345 46.7763L15.296 46.2306H15.7593C16.3734 46.2306 16.8367 45.9679 17.3204 45.3278C17.5414 45.0234 18.0047 44.4028 18.357 43.9319C18.7093 43.4611 19.0217 43.0819 19.0626 43.0819C19.1034 43.0819 19.1424 44.2261 19.1424 45.6321C19.1424 47.0381 19.2037 48.5708 19.2534 49.0638L19.3475 49.9592L18.9925 50.641C17.6026 53.2236 16.0726 57.3694 14.8336 61.851C14.6322 62.5957 15.1762 63.677 15.8906 63.96C16.2634 64.1071 17.1331 64.1071 17.3994 63.96C18.0206 63.6243 18.2656 63.2256 18.6792 61.8325C18.9099 61.0768 19.2223 60.0797 19.3838 59.6181C19.5454 59.1565 19.7388 58.5266 19.8276 58.2223C19.9471 57.8135 20.0884 57.4121 20.2509 57.0198C20.3912 56.6627 20.5527 56.2742 20.5926 56.1586C20.6326 56.043 20.9556 55.2983 21.3079 54.501C21.9292 53.0524 22.1537 52.6954 22.2443 52.9683C22.6374 54.1856 23.382 56.5471 23.564 57.1557C23.8355 58.0585 24.5908 60.3572 25.0443 61.6688C25.5378 63.0859 26.001 63.5586 26.9081 63.5586C27.4823 63.5586 28.2775 63.1285 28.5491 62.666C28.9218 62.0259 28.912 61.556 28.4994 60.3044C28.2979 59.6958 28.0964 59.0557 28.0458 58.8883C27.9757 58.6043 27.5018 57.1243 26.4546 53.9025C26.2336 53.2411 25.9105 52.2227 25.7295 51.6455C25.5484 51.0683 25.3567 50.5022 25.2964 50.3866C25.236 50.271 25.1659 49.7779 25.1553 49.284C25.1446 48.79 25.0949 47.7115 25.0346 46.8707C24.9139 45.1594 24.8934 43.4065 24.9946 43.4065C25.0248 43.4065 25.2866 43.6267 25.5688 43.8996C26.0321 44.351 26.727 44.9171 28.0458 45.9466C28.6298 46.398 30.1403 47.3526 30.5131 47.4997C30.8858 47.6467 31.3491 47.4793 31.8222 47.0066L32.2047 46.6292L32.1541 45.5895C32.0937 44.351 32.1346 44.4037 30.6134 43.3436C28.4381 41.8109 26.9986 40.4678 25.5546 38.5993C24.5278 37.2775 23.8329 36.5532 23.3093 36.2692C22.7856 35.9853 21.576 35.8844 20.9618 36.075ZM9.08885 51.2922C9.26635 51.4772 9.22996 52.3938 9.00897 53.2439C8.92372 53.5367 8.85643 53.8349 8.80751 54.1365C8.80751 54.2096 9.35066 54.8923 10.0154 55.6683C10.6801 56.4444 11.2446 57.1594 11.2845 57.2741C11.3546 57.5054 11.0831 57.9882 10.8914 57.9882C10.8115 57.9882 10.3988 57.7154 9.95504 57.3796C9.51129 57.0438 8.9788 56.6655 8.76668 56.5397C8.27323 56.2354 8.21288 56.2881 7.87031 57.4009L7.60406 58.2195L7.94663 58.5654C8.32914 58.9354 8.37973 59.1537 8.13833 59.3628C8.00698 59.4682 7.80552 59.4368 6.91003 59.1426C5.63115 58.7227 5.4998 58.6283 5.66132 58.2509C5.75007 58.0511 5.85213 57.9882 6.08377 57.9882C6.42635 57.9882 6.78844 57.6737 6.78844 57.3583C6.82008 57.0857 6.8708 56.8158 6.94021 56.5508C7.04049 56.1512 7.06091 55.9209 6.98991 55.8469C6.91891 55.7729 6.21512 55.7109 5.39951 55.6794L3.91916 55.6267L3.94933 55.2567C3.95909 55.0569 4.00968 54.858 4.05938 54.8053C4.10908 54.7526 4.88565 54.5324 5.79178 54.3012C6.69792 54.0699 7.51353 53.8082 7.60406 53.724C7.69458 53.6398 7.80552 53.3882 7.84635 53.1782C7.96705 52.5169 8.2901 51.6668 8.52084 51.405C8.7516 51.1432 8.9078 51.1035 9.08885 51.2922Z" fill="#084981"/>
<path d="M57.5472 38.6761V39.2959L56.926 39.3273L56.2914 39.3588L56.2613 40.0063L56.2311 40.6676H58.7525V41.9303H57.5472V44.5434L56.926 44.5748L56.2914 44.6063V45.8661H58.8057L58.8359 43.8922L58.8563 41.9192L59.4403 41.9506L60.0145 41.9821L60.0447 42.6296L60.0748 43.2909H61.3741V44.561L62.0078 44.5295L62.6291 44.4981V43.3464L62.0078 43.315L61.3741 43.2835V39.2959L61.9279 39.3162C62.2395 39.3375 62.5314 39.2959 62.5927 39.232C62.6539 39.1682 62.6814 38.8963 62.6628 38.6132L62.6326 38.0989L62.0114 38.0675L61.3777 38.036V39.306H60.0642V38.0462H57.5472V38.6761ZM60.0642 39.9878V40.6704H58.8563V39.4217L59.2388 39.3791C60.1352 39.2848 60.0642 39.232 60.0642 39.9878Z" fill="black"/>
<path d="M53.7203 41.3003V41.9303H55.0294V40.6704H53.7203V41.3003Z" fill="black"/>
<path d="M67.7162 54.3669V55.0495H66.3992L66.4293 55.697L66.4595 56.3584H67.6674L67.6976 55.697L67.7278 55.0495H68.9365L68.9064 54.3881L68.8762 53.7406L68.302 53.7092L67.718 53.6777L67.7162 54.3669Z" fill="black"/>
<path d="M32.17 60.8743V65.4401H41.0317V56.3094H32.17V60.8743ZM39.7227 60.927V64.1811H33.3788V61.001C33.3788 59.2435 33.409 57.7783 33.4489 57.7468C33.4889 57.7154 34.9089 57.6738 36.6209 57.6738H39.7227V60.927Z" fill="black"/>
<path d="M34.688 60.927V62.9213H38.5176L38.4971 60.9483L38.467 58.9854L36.5837 58.954L34.6907 58.9327L34.688 60.927Z" fill="black"/>
<path d="M53.7203 64.8102V65.4401H55.0294V64.1812H53.7203V64.8102Z" fill="black"/>
<path d="M4.81907 68.635C4.7889 68.7081 4.7889 69.4425 4.79955 70.2723L4.82972 71.7939H5.63557L5.68527 70.954C5.73586 70.1465 5.74562 70.115 5.98791 70.115C6.2302 70.115 6.23907 70.1465 6.28966 70.954L6.34025 71.7939H7.1461V70.8245C7.1461 70.0373 7.10527 69.8273 6.9544 69.6488C6.72276 69.387 6.07844 69.3445 5.8894 69.5859C5.70036 69.8273 5.63824 69.6914 5.63824 69.0827V68.537L5.25484 68.5259C5.04095 68.5157 4.83949 68.5684 4.81907 68.635Z" fill="#084981"/>
<path d="M16.4507 68.5046C16.4507 68.5258 16.2794 69.2816 16.0682 70.1945C15.7558 71.57 15.7052 71.8743 15.8259 71.916C15.862 71.9331 15.902 71.9393 15.9412 71.9337C15.9805 71.9282 16.0175 71.9111 16.0478 71.8845C16.1587 71.7587 16.8536 68.6627 16.7933 68.5684C16.7525 68.4944 16.4711 68.45 16.4507 68.5046Z" fill="#084981"/>
<path d="M17.7296 68.5684C17.6586 68.6831 17.0346 71.4442 17.0249 71.6856C17.0142 71.8216 17.0746 71.8947 17.2024 71.8947C17.363 71.8947 17.434 71.7097 17.6657 70.6358C17.8165 69.9429 17.9878 69.1974 18.0482 68.9874C18.1085 68.7774 18.1183 68.5786 18.0881 68.5471C18.0359 68.5051 17.9709 68.4842 17.905 68.4881C17.8392 68.492 17.7769 68.5205 17.7296 68.5684Z" fill="#084981"/>
<path d="M42.0391 68.82C42.0391 69.1141 42.0595 69.1243 42.4216 69.0975C42.734 69.066 42.7943 69.0235 42.7943 68.8144C42.7943 68.6054 42.7437 68.5619 42.4216 68.5416C42.0595 68.5157 42.0391 68.5369 42.0391 68.82Z" fill="#084981"/>
<path d="M45.8961 68.61C45.8553 68.6831 45.6538 69.4499 45.4524 70.3C45.1506 71.595 45.1107 71.8725 45.2314 71.916C45.2692 71.9326 45.3106 71.9384 45.3513 71.9329C45.392 71.9274 45.4306 71.9107 45.463 71.8845C45.574 71.7587 46.268 68.6729 46.2076 68.5684C46.1278 68.4417 45.9867 68.4629 45.8961 68.61Z" fill="#084981"/>
<path d="M57.2854 68.5786C57.2526 68.6727 57.2387 68.7728 57.2446 68.8727C57.2446 69.0929 57.2854 69.1142 57.7079 69.1142C58.1303 69.1142 58.1614 69.1031 58.1312 68.8302C58.1011 68.5888 58.0505 68.5527 57.7185 68.5471C57.51 68.537 57.305 68.5573 57.2854 68.5786Z" fill="#084981"/>
<path d="M61.6156 68.635C61.5854 68.7081 61.5854 69.4425 61.5952 70.2723L61.6253 71.7939H62.4312L62.4613 71.0382C62.4915 70.2723 62.6326 69.9781 62.9246 70.0937C63.0356 70.1465 63.0862 70.3768 63.1021 70.9753L63.1323 71.7939H63.9381V70.8347C63.9381 70.0373 63.908 69.8273 63.7465 69.6488C63.5148 69.387 62.8705 69.3445 62.6815 69.5859C62.4924 69.8273 62.4294 69.6914 62.4294 69.0827V68.537L62.0469 68.5259C61.8374 68.5157 61.636 68.5684 61.6156 68.635Z" fill="#084981"/>
<path d="M8.23337 68.82C8.05587 68.9356 7.90145 69.1141 7.90145 69.2186C7.89887 69.2702 7.88354 69.3203 7.85695 69.3638C7.83036 69.4074 7.79341 69.4431 7.74968 69.4675C7.66981 69.4989 7.59881 69.6358 7.59881 69.7829C7.59695 69.8442 7.60977 69.9051 7.63611 69.96C7.66245 70.0149 7.70148 70.0621 7.74968 70.0974C7.86062 70.1399 7.90145 70.3286 7.90145 70.8217C7.90145 71.7032 8.02215 71.8604 8.65671 71.8188C9.1191 71.7874 9.15992 71.7661 9.15992 71.5247C9.15992 71.3397 9.10933 71.2629 8.95846 71.2629C8.78717 71.2629 8.757 71.1787 8.72682 70.7079C8.69665 70.2047 8.71706 70.1529 8.95846 70.0604C9.29038 69.9346 9.28062 69.4832 8.95846 69.4832C8.79693 69.4832 8.74723 69.399 8.72682 69.0318C8.68688 68.5369 8.67623 68.5258 8.23337 68.82Z" fill="#084981"/>
<path d="M10.1974 68.8098C9.96572 68.9356 9.81396 69.0929 9.81396 69.2085C9.81205 69.2619 9.79721 69.3139 9.77083 69.3596C9.74445 69.4054 9.70738 69.4435 9.66308 69.4703C9.61818 69.494 9.58037 69.53 9.55377 69.5746C9.52717 69.6191 9.51279 69.6704 9.51221 69.7228C9.5201 69.8506 9.57398 69.9705 9.66308 70.0586C9.76426 70.1428 9.81396 70.3842 9.81396 70.7829C9.81396 71.6154 9.98524 71.8429 10.6198 71.8429C10.8914 71.8429 11.1337 71.8115 11.1523 71.7587C11.2322 71.6218 11.0511 71.2657 10.91 71.2657C10.8213 71.2657 10.7494 71.0872 10.7086 70.7403C10.6384 70.1317 10.6589 70.0586 10.9304 70.0586C11.0715 70.0586 11.1212 69.9846 11.1212 69.7432C11.1212 69.4814 11.0813 69.4287 10.8798 69.4287C10.6589 69.4287 10.6384 69.3972 10.689 69.0087C10.7512 68.537 10.721 68.5157 10.1974 68.8098Z" fill="#084981"/>
<path d="M65.0289 68.82C64.8514 68.9356 64.697 69.1141 64.697 69.2187C64.6951 69.2707 64.6801 69.3212 64.6537 69.3654C64.6272 69.4095 64.5901 69.4457 64.5461 69.4703C64.5012 69.494 64.4634 69.53 64.4368 69.5745C64.4102 69.6191 64.3958 69.6703 64.3953 69.7228C64.4032 69.8505 64.457 69.9705 64.5461 70.0586C64.6464 70.1511 64.697 70.3943 64.697 70.8346C64.697 71.706 64.8177 71.8632 65.4523 71.8216C65.9155 71.7902 65.9555 71.7689 65.9555 71.5275C65.9555 71.3425 65.9058 71.2657 65.754 71.2657C65.5827 71.2657 65.5526 71.1815 65.5224 70.7107C65.4922 70.2075 65.5126 70.1557 65.754 70.0632C66.0868 69.9374 66.0762 69.486 65.754 69.486C65.5934 69.486 65.5428 69.4018 65.5224 69.0346C65.4825 68.5369 65.4727 68.5258 65.0289 68.82Z" fill="#084981"/>
<path d="M11.667 69.5646C11.6466 69.6386 11.6369 70.3629 11.6466 71.1602L11.6777 72.6301H12.0327C12.3744 72.6301 12.3877 72.619 12.4152 72.1888L12.4454 71.7587L12.9779 71.8114C13.4713 71.8632 13.5219 71.8531 13.7766 71.5275C14.1591 71.0557 14.1689 70.2158 13.7864 69.7542C13.649 69.5823 13.4569 69.4676 13.2451 69.4309C13.0334 69.3942 12.816 69.4381 12.6326 69.5544C12.4614 69.6599 12.401 69.6599 12.3664 69.5544C12.3016 69.387 11.738 69.387 11.667 69.5646ZM13.0569 70.1316C13.2983 70.3629 13.2885 70.9188 13.0365 71.1602C12.8456 71.3388 12.8252 71.3388 12.6335 71.1602C12.3921 70.9299 12.3717 70.4045 12.6034 70.1427C12.8048 69.9115 12.8252 69.9115 13.0569 70.1316Z" fill="#084981"/>
<path d="M14.5879 69.5757C14.5535 69.7235 14.5466 69.8767 14.5674 70.0271C14.5976 70.3046 14.6376 70.3203 15.0005 70.3203H15.4035V69.9013C15.4035 69.4916 15.3928 69.4814 15.021 69.4499C14.7591 69.4287 14.6278 69.4601 14.5879 69.5757Z" fill="#084981"/>
<path d="M18.2328 69.5128C18.1831 69.6053 18.8372 71.5071 19.0085 71.7171C19.0688 71.7902 19.2499 71.8429 19.4212 71.8216C19.7034 71.7902 19.754 71.7291 19.935 71.1917C20.046 70.8559 20.1667 70.583 20.1968 70.583C20.227 70.583 20.3575 70.8605 20.4684 71.1815C20.6459 71.78 20.6601 71.7902 21.0426 71.7902H21.4154L21.8076 70.67C22.0198 70.0613 22.1626 69.5258 22.1298 69.4943C22.0218 69.4471 21.9051 69.4256 21.7881 69.4314C21.4553 69.4314 21.3444 69.6099 21.2441 70.3028C21.1553 70.9327 20.992 70.9012 20.8003 70.2103C20.629 69.5628 20.5279 69.4333 20.1862 69.4333C19.8445 69.4333 19.7424 69.5591 19.5711 70.2417C19.501 70.546 19.4105 70.7967 19.3697 70.7967C19.2809 70.7967 19.0777 70.1252 19.0777 69.8412C19.0699 69.7352 19.0272 69.6352 18.957 69.5581C18.8274 69.4185 18.3136 69.387 18.2328 69.5128Z" fill="#084981"/>
<path d="M22.3721 69.4915C22.3419 69.523 22.483 70.0586 22.6943 70.6672L23.0865 71.7902H23.4699C23.8622 71.7902 23.8622 71.78 24.0433 71.1815C24.1444 70.8559 24.2651 70.583 24.3157 70.583C24.3663 70.583 24.4764 70.8605 24.5775 71.1815C24.7683 71.78 24.7684 71.7902 25.1615 71.7902H25.5538L25.915 70.7199C26.1165 70.1215 26.3277 69.6599 26.3783 69.6701C26.4289 69.6802 26.6401 70.1742 26.8416 70.7514L27.1966 71.7902H27.5888C27.982 71.7902 27.982 71.7902 28.1835 71.1288C28.2944 70.7717 28.4044 70.4813 28.4346 70.4813C28.4648 70.4813 28.5864 70.7745 28.6964 71.1417C28.8784 71.7199 28.9281 71.7892 29.1899 71.8244C29.3514 71.8457 29.5227 71.8142 29.583 71.7513C29.7339 71.5931 30.4492 69.6099 30.3889 69.5045C30.3179 69.3787 29.7845 69.4212 29.6736 69.5572C29.5894 69.731 29.535 69.9189 29.5129 70.1122C29.4419 70.5312 29.291 70.8883 29.2307 70.7939C29.2103 70.7625 29.11 70.4582 28.9991 70.1122C28.7976 69.4823 28.7976 69.4823 28.4044 69.4823H28.0122L27.8409 70.1011C27.7521 70.448 27.6297 70.7412 27.5693 70.7625C27.509 70.7838 27.438 70.584 27.4078 70.3213C27.2968 69.4888 27.2471 69.4508 26.3809 69.4508C25.9372 69.4508 25.5955 69.5026 25.5547 69.5655C25.4743 69.7608 25.4168 69.9655 25.3834 70.1751C25.323 70.4526 25.2325 70.6783 25.1722 70.6894C25.1118 70.7005 25.0009 70.4794 24.9201 70.1955C24.7195 69.5137 24.6485 69.4296 24.3264 69.4296C23.9643 69.4296 23.8631 69.5655 23.7051 70.1955C23.564 70.8041 23.4025 70.7838 23.2614 70.1538C23.2232 69.9482 23.1637 69.7475 23.0839 69.5554C22.996 69.4286 22.483 69.375 22.3721 69.4915Z" fill="#084981"/>
<path d="M32.1497 69.733C31.8479 70.016 31.8177 70.103 31.8177 70.6358C31.8177 71.1686 31.8479 71.2546 32.1497 71.5386C32.4221 71.7902 32.5632 71.8429 33.0265 71.8429C33.3283 71.8429 33.6806 71.7902 33.8253 71.7171C34.1075 71.5904 34.419 71.1714 34.3187 71.0696C34.1874 70.9438 33.543 71.0067 33.3718 71.1751C32.9999 71.5312 32.5366 71.0594 32.6467 70.4508C32.7274 70.041 33.0301 69.8958 33.3318 70.1039C33.614 70.3037 34.1474 70.3241 34.2486 70.1465C34.2885 70.0827 34.1874 69.905 33.9966 69.7265C33.7241 69.474 33.5936 69.4324 33.0798 69.4324C32.5659 69.4324 32.4319 69.4675 32.1497 69.733Z" fill="#084981"/>
<path d="M34.9294 69.6914C34.7883 69.8375 34.6977 69.9957 34.7279 70.0475C34.8389 70.226 35.4228 70.2371 35.7042 70.0688C35.9358 69.9328 35.9962 69.9328 36.1373 70.0475C36.3689 70.2473 36.258 70.325 35.516 70.4785C34.6401 70.6635 34.3277 71.1501 34.7909 71.6329C35.0128 71.8633 35.6784 71.916 36.0095 71.7254C36.1603 71.6514 36.2518 71.6514 36.3521 71.7356C36.5029 71.8614 37.1774 71.8411 37.1375 71.7042C37.1171 71.6625 37.1073 71.2528 37.1073 70.7912C37.1073 70.0253 37.0771 69.9198 36.8553 69.6895C36.6334 69.4592 36.5233 69.4268 35.8985 69.4268C35.2737 69.4268 35.1513 69.4601 34.9294 69.6914ZM36.108 71.1186C35.8417 71.3388 35.6341 71.3702 35.5435 71.2111C35.3927 70.9484 36.0175 70.6025 36.2491 70.8226C36.3095 70.8772 36.2589 70.9817 36.108 71.1186Z" fill="#084981"/>
<path d="M38.0516 69.6285C37.3762 70.0586 37.3762 71.213 38.0409 71.6329C38.4847 71.916 39.3003 71.916 39.6526 71.6218C40.226 71.1593 40.226 70.1113 39.6526 69.6386C39.3101 69.3556 38.4838 69.3556 38.0516 69.6285ZM39.0278 70.0586C39.3101 70.2158 39.3003 71.0557 39.0181 71.213C38.9583 71.2541 38.8882 71.276 38.8166 71.276C38.745 71.276 38.6749 71.2541 38.6151 71.213C38.3631 71.0659 38.3436 70.4258 38.585 70.1428C38.7767 69.9217 38.7767 69.9217 39.0278 70.0586Z" fill="#084981"/>
<path d="M42.0675 69.597C42.0471 69.6599 42.0471 70.1742 42.0577 70.7514L42.0879 71.7902H42.7926V69.5018L42.45 69.4916C42.2707 69.4814 42.0994 69.5332 42.0675 69.597Z" fill="#084981"/>
<path d="M43.4485 70.5303V71.706C43.4485 71.7587 43.6198 71.7901 43.8319 71.7901H44.2037L44.2543 71.0973C44.3049 70.4045 44.486 70.0058 44.7078 70.1002C44.8853 70.1631 45.0628 69.9531 45.0628 69.67C45.0628 69.4702 45.0123 69.4286 44.7602 69.4286C44.6846 69.4249 44.6092 69.439 44.5396 69.4699C44.47 69.5008 44.408 69.5478 44.3582 69.6072C44.257 69.7857 44.257 69.7857 44.1567 69.6072C44.1068 69.5477 44.0446 69.5008 43.9748 69.4699C43.9051 69.439 43.8295 69.4249 43.7538 69.4286H43.4511L43.4485 70.5303Z" fill="#084981"/>
<path d="M46.6107 69.5646C46.5911 69.6386 46.5805 70.3629 46.5911 71.1602L46.6213 72.6301H46.9763C47.3189 72.6301 47.3313 72.619 47.3588 72.1888L47.389 71.7587L47.9215 71.8114C48.4149 71.8632 48.4655 71.8531 48.7202 71.5275C49.1028 71.0557 49.1125 70.2158 48.73 69.7542C48.5926 69.5823 48.4005 69.4676 48.1887 69.4309C47.977 69.3942 47.7596 69.4381 47.5763 69.5544C47.405 69.6599 47.3446 69.6599 47.31 69.5544C47.2452 69.387 46.6825 69.387 46.6107 69.5646ZM48.0005 70.1316C48.2419 70.3629 48.2321 70.9188 47.9801 71.1602C47.7893 71.3388 47.7688 71.3388 47.578 71.1602C47.3357 70.9299 47.3118 70.5127 47.5372 70.1844C47.7183 69.9115 47.7591 69.9013 48.0005 70.1316Z" fill="#084981"/>
<path d="M49.7523 69.6525C49.6121 69.7681 49.4861 69.9254 49.4861 70.0096C49.4861 70.2094 50.1011 70.2723 50.3629 70.0937C50.6247 69.9152 50.9469 69.9467 50.9469 70.1668C50.9469 70.2723 50.7454 70.3666 50.3425 70.461C50.0097 70.534 49.6574 70.6709 49.5669 70.7653C49.4553 70.8868 49.3931 71.0485 49.3931 71.2167C49.3931 71.3849 49.4553 71.5466 49.5669 71.6681C49.8189 71.8984 50.5644 71.8984 50.8156 71.6681C50.9869 71.5108 51.0073 71.5108 51.128 71.6783C51.2167 71.8041 51.3596 71.8568 51.5513 71.8253L51.8326 71.7939L51.8131 70.8495C51.7821 69.6007 51.6516 69.4324 50.6949 69.4324C50.1659 69.4287 49.9662 69.4675 49.7523 69.6525ZM50.9709 71.0483C50.891 71.2583 50.4171 71.3841 50.276 71.238C50.1348 71.0918 50.3372 70.8282 50.631 70.7755C50.9247 70.7227 51.0419 70.8347 50.9709 71.0446V71.0483Z" fill="#084981"/>
<path d="M52.2799 69.4915C52.2498 69.5332 52.3687 69.7746 52.5622 70.0373C52.7556 70.3 52.9172 70.5516 52.9172 70.5923C52.9172 70.633 52.7565 70.9179 52.5622 71.2019C52.3678 71.4858 52.2072 71.7365 52.2072 71.7791C52.2072 71.8216 52.3989 71.842 52.6305 71.8207C52.9926 71.7994 53.0938 71.7365 53.2642 71.4507C53.3751 71.2657 53.4958 71.1149 53.5366 71.1038C53.5775 71.0927 53.6875 71.2722 53.8082 71.4738C53.9857 71.8096 54.0505 71.8438 54.4729 71.8438C54.725 71.8438 54.9265 71.8124 54.9265 71.7698C54.8066 71.5476 54.6682 71.3368 54.5129 71.1399L54.1135 70.5775L54.5155 70.0734C54.7374 69.7959 54.8989 69.5378 54.8581 69.4962C54.8173 69.4545 54.6265 69.4333 54.4144 69.4333C54.1126 69.4333 53.991 69.4962 53.8206 69.7478C53.699 69.9161 53.5686 70.0632 53.5384 70.0632C53.5082 70.0632 53.4071 69.9161 53.3467 69.7478C53.2464 69.4647 53.1861 69.4333 52.7929 69.4333C52.54 69.4286 52.3208 69.4601 52.2799 69.4915Z" fill="#084981"/>
<path d="M55.372 69.5646C55.3436 69.9595 55.3368 70.3557 55.3516 70.7514L55.3818 71.7902H56.0918L56.1521 71.0872C56.2125 70.3629 56.3731 70.0059 56.6154 70.1002C56.7663 70.1631 57.0982 69.7015 56.9979 69.5332C56.9091 69.387 56.4139 69.3972 56.2524 69.5545C56.1415 69.6599 56.1113 69.6599 56.0749 69.5545C56.0066 69.387 55.4421 69.387 55.372 69.5646Z" fill="#084981"/>
<path d="M57.2855 69.5859C57.2553 69.6488 57.2553 70.1742 57.2651 70.7514L57.2953 71.7902H58.1011V69.4915L57.7186 69.4703C57.4967 69.4675 57.305 69.5128 57.2855 69.5859Z" fill="#084981"/>
<path d="M58.8165 69.7542C58.3532 70.3203 58.544 71.3702 59.1484 71.6218C59.4501 71.7587 59.6019 71.7485 59.9942 71.5802C60.145 71.5173 60.1717 71.5385 60.145 71.7374C60.1051 72.0843 59.8131 72.2415 59.5611 72.0732C59.3865 71.9926 59.1981 71.9498 59.0073 71.9474C58.725 71.9474 58.6523 71.99 58.6523 72.1574C58.6523 72.5043 59.1253 72.7346 59.8309 72.7346C60.374 72.7346 60.4947 72.693 60.7264 72.4571C60.9784 72.1796 60.9926 72.1426 60.9988 70.83C61.0086 69.4869 61.0086 69.4767 60.7769 69.4425C60.6106 69.4268 60.4434 69.4588 60.2933 69.535C60.1158 69.6395 60.0314 69.6395 59.9383 69.5452C59.8681 69.4721 59.6463 69.4194 59.4448 69.4194C59.1581 69.4286 59.0188 69.5017 58.8165 69.7542ZM59.9702 70.0586C60.2018 70.1945 60.2365 70.8143 60.011 71.003C59.6081 71.3489 59.1848 70.7199 59.4972 70.226C59.6924 69.9217 59.7022 69.9115 59.9738 70.0586H59.9702Z" fill="#084981"/>
<path d="M66.6308 69.6701C66.1675 70.1742 66.4293 70.7301 67.1944 70.8559C67.6781 70.9401 67.9798 71.1334 67.8795 71.2971C67.7792 71.4609 67.3861 71.4544 67.2343 71.2971C67.063 71.1186 66.5394 71.0973 66.4089 71.2657C66.3282 71.3702 66.369 71.4507 66.5696 71.6218C66.7701 71.7929 66.9831 71.8429 67.4864 71.8429C68.0703 71.8429 68.1715 71.8114 68.4333 71.5386C68.594 71.3702 68.7253 71.1602 68.7253 71.0761C68.7253 70.7403 68.3623 70.4471 67.7686 70.3203C67.4464 70.2574 67.1544 70.1427 67.134 70.0789C67.0737 69.8939 67.4162 69.7959 67.6275 69.9328C67.8387 70.0697 68.483 70.1002 68.5735 69.9642C68.6046 69.9115 68.5034 69.7644 68.3623 69.6488C67.9594 69.3241 66.9326 69.3343 66.6308 69.6701Z" fill="#084981"/>
<path d="M14.618 70.9614C14.5772 71.003 14.547 71.2232 14.547 71.4442V71.8531L14.9801 71.8216C15.4034 71.7902 15.4034 71.7902 15.4034 71.3702C15.4034 70.9503 15.3928 70.9503 15.0484 70.9188C14.8496 70.8985 14.6579 70.9188 14.618 70.9614Z" fill="#084981"/>
<path d="M30.3977 71.0446C30.3638 71.1924 30.3569 71.3455 30.3773 71.496C30.4075 71.7735 30.4376 71.7902 30.8406 71.7902C31.0722 71.7902 31.2639 71.7587 31.2639 71.706V71.2657C31.2639 70.9086 31.2541 70.8957 30.861 70.8957C30.5992 70.8985 30.4279 70.9475 30.3977 71.0446Z" fill="#084981"/>
<path d="M40.5188 70.9401C40.5188 70.9715 40.5082 71.1815 40.5082 71.3915L40.4984 71.7902H41.3859V71.3702C41.3859 70.9503 41.3859 70.9503 40.9635 70.9188C40.7194 70.8985 40.5286 70.9086 40.5188 70.9401Z" fill="#084981"/>
</svg>
